<?xml version="1.0" standalone="no"?>
<!DOCTYPE svg PUBLIC "-//W3C//DTD SVG 20010904//EN"
 "http://www.w3.org/TR/2001/REC-SVG-20010904/DTD/svg10.dtd">
<svg version="1.0" xmlns="http://www.w3.org/2000/svg"
 width="204.000000pt" height="204.000000pt" viewBox="0 0 204.000000 204.000000"
 preserveAspectRatio="xMidYMid meet">
<metadata>
Created by potrace 1.14, written by Peter Selinger 2001-2017
</metadata>
<g transform="translate(0.000000,204.000000) scale(0.100000,-0.100000)"
fill="#000000" stroke="none">
<path d="M1457 1853 c-4 -3 -7 -110 -7 -237 l0 -230 -120 -121 -120 -122 0
-196 0 -197 -80 0 -80 0 0 68 c0 37 -4 73 -9 80 -5 9 -28 12 -77 10 l-69 -3
-3 -77 -3 -78 -79 0 -79 0 -3 78 -3 77 -72 3 c-54 2 -73 -1 -75 -10 -1 -7 -2
-41 -2 -75 -1 -34 -3 -64 -6 -66 -5 -5 -72 -10 -127 -8 l-33 1 0 68 c0 40 -5
73 -12 80 -7 7 -38 12 -70 12 -47 0 -59 -4 -68 -20 -13 -24 -10 -674 3 -687
14 -13 356 -16 372 -3 10 8 14 49 17 155 l3 144 30 31 c63 66 137 79 210 35
60 -35 71 -67 79 -224 4 -90 10 -138 19 -143 6 -4 195 -8 419 -8 359 0 408 2
423 16 14 14 15 66 13 480 l-3 464 -117 118 -118 117 0 85 0 85 145 73 c80 39
145 75 145 80 0 4 -65 40 -145 80 -140 70 -148 72 -218 72 -41 0 -77 -3 -80
-7z m128 -727 c26 -26 38 -84 33 -161 l-3 -50 -82 -3 -81 -3 -7 42 c-10 59 3
144 26 173 27 35 80 35 114 2z"/>
</g>
</svg>
